<svg width="770" height="657" fill="none" xmlns="http://www.w3.org/2000/svg"><g clip-path="url(#clip0)"><path d="M162 84c25 1 36-16 48-38 32-61 105-55 129-18 17 27 55 21 85 11 29-10 80-20 120-8 35 11 49 49 81 47 70-5 105 64 93 94-8 19-13 41-6 61 8 23 24 40 38 59s25 43 18 66c-6 19-23 32-34 49-33 53 0 133-45 177-32 32-83 24-128 30-37 5-72 21-109 27-75 13-151-15-226-15-27-1-54 2-80-4-35-9-64-36-76-69-17-46-1-99-20-144-15-37-52-67-50-106 2-25 18-46 30-68 17-32-6-161 132-151zm221-60c-7 0-12 4-12 9s5 9 12 9c21 2 21-7 21-12 0-8-15-6-21-6zm220 39c5 5 13 8 20 8l6-1c2-2 2-5 1-7l-5-2-6-4-1-2c-4-3-23 2-15 8zm37 8h5c2 0 3-1 3-3l-1-1c-3-1-6-2-9 0-2 1 0 4 2 4zm88 174c0 3 2 6 3 8l11 13c2 1 4 3 7 3l6-3c4-3 7-8 8-13 0-7-3-14-7-20-2-4-5-7-9-9-7-4-11-1-13 5s-7 10-6 16zM13 412c-3 3 0 12 1 18l2 5c1 2 4 3 6 4 5 1 10 2 13-1 3-2 3-6 3-9l-1-9-1-5-4-3c-6-2-15-3-19 0zm216 228c-2 0-4 1-5 3 0 2 2 4 3 5 12 8 27 9 42 9l5-1c3-1 4-5 3-8l-3-3c-11-11-30-8-45-5zm289-6c-13 10 0 18 16 12 9-4 17-7 27-9 3-1 20-5 20-9 0-10-20-8-32-6-10 1-21 4-31 12z" fill="#ECF3FF"/><path d="M273 607c34 0 62-3 62-6s-28-6-62-6c-35 0-63 3-63 6s28 6 63 6zM595 607c34 0 63-3 63-6s-29-6-63-6c-35 0-63 3-63 6s28 6 63 6z" fill="#C8DBFB"/><path d="M727 188v-3" stroke="#C8DBFB" stroke-linecap="round" stroke-linejoin="round"/><path d="M725 179c-11-38-47-34-79-34l-572 1c-54 0-49 78-6 78 24 0 33 45-9 45-25 0-26 32-9 39" stroke="#C8DBFB" stroke-linecap="round" stroke-linejoin="round" stroke-dasharray="3.99 3.99"/><path d="M53 309h4" stroke="#C8DBFB" stroke-linecap="round" stroke-linejoin="round"/><path d="M63 307a8 8 0 11-15 3 8 8 0 0115-3zM735 192a8 8 0 11-15-3 8 8 0 0115 3zM142 251l-4 18-17 39c-3 6-15 21-22 24 1-17 1-37-1-54s4-29-3-44l-2-6c-4-8-7-15-8-23-1-10 2-21 11-26 6-4 14-4 21-1 6 3 12 8 16 14 11 17 13 39 9 59z" fill="#5193F4"/><path d="M112 196c13 18 14 38 15 60s-4 45-15 64" stroke="#0B43A4" stroke-miterlimit="10" stroke-linecap="round" stroke-linejoin="round"/><path d="M112 526c-9-7-18-15-25-25-6-9-9-19-14-28-3-6-7-11-9-18-2-6-2-14 3-19s13-6 19-3c7 3 12 8 16 14 5 8 8 17 9 26 2 8 1 17 3 25 1 8 3 15 7 22 3 7 10 18 12 25-5 2-18-15-21-19z" fill="#00AD9F"/><path d="M81 445c8 4 11 14 13 23 2 10 2 21 6 31 9 17 21 37 30 43" stroke="#00AD9F" stroke-miterlimit="10" stroke-linecap="round" stroke-linejoin="round"/><path d="M68 502c-8-3-17-4-22 2-4 6-2 13 1 19 2 6 5 11 10 14l11 2c10 2 21 2 32 2 12 0 27 5 38 13-14-24-45-42-70-52z" fill="#0056EC"/><path d="M55 518c9 1 19 1 28 4s45 19 50 26" stroke="#0B43A4" stroke-miterlimit="10" stroke-linecap="round" stroke-linejoin="round"/><path d="M148 452a63 63 0 00-43-28c-13-2-27 1-40-2s-26-12-33-23c-7-12-9-27-5-41 3-10 10-19 20-22 6-2 12-2 17-1l15 7c10 6 18 16 24 26a234 234 0 0038 44c7 8 4 31 7 40z" fill="#52D2BC"/><path d="M44 365c32 14 66 33 88 59" stroke="#00AD9F" stroke-miterlimit="10" stroke-linecap="round" stroke-linejoin="round"/><path opacity=".2" d="M135 420s-46-38-56-78c10 6 18 16 24 26s19 25 29 34l3 18zM138 269l-17 39c-3 6-15 21-22 24 1-17 1-37-1-54s4-29-3-44a460 460 0 00-1-6c11 5 16 16 17 27 1 9-1 18-2 27v13c1 5 8 4 9-1l3-15c1-4 1-9 5-12l5-2c3 0 5 2 7 4z" fill="#5275A0"/><path d="M135 411c-7-39-11-45-8-54 5-13 2-25 6-38 4-12 7-25 4-38-1-4-3-8-8-9l-5 2c-4 4-5 8-6 13l-3 15c-1 5-8 5-9 0v-12c1-9 3-18 2-28s-6-22-16-26c-4-2-8-2-12-1-11 3-14 13-13 23 1 6 5 12 7 18 7 15 2 29 3 45 3 45 58 90 58 90z" fill="#7EE8D4"/><path d="M86 246c5 28 11 56 21 81 4 8 5 18 23 39" stroke="#00AD9F" stroke-miterlimit="10" stroke-linecap="round" stroke-linejoin="round"/><path d="M300 253l-16-19a171 171 0 00-18-18c-13-10-27-19-42-26-10-4-19-7-27-13s-14-17-11-26c2-7 8-13 15-15 6-3 14-3 21-1 20 4 36 18 48 35v1a187 187 0 0124 55c2 6 9 21 6 27z" fill="#5193F4"/><path d="M210 151c21 5 37 19 53 34s27 35 33 56" stroke="#0B43A4" stroke-miterlimit="10" stroke-linecap="round" stroke-linejoin="round"/><path opacity=".2" d="M284 234v7c-5-2-9-10-12-19l-3-23c-1-9-1-19 1-28 9 13 14 27 19 41a168 168 0 00-5 22z" fill="#5275A0"/><path d="M321 156c-2 8-6 15-11 22a171 171 0 00-21 51v13c-11-2-15-32-16-41-1-16 2-33 8-48 3-6 7-13 13-17 5-4 14-6 20-2 3 2 6 6 7 10v12z" fill="#52D2BC"/><path d="M285 233c-7-16-3-51 8-73 3-7 7-13 14-17" stroke="#00AD9F" stroke-miterlimit="10" stroke-linecap="round" stroke-linejoin="round"/><path opacity=".2" d="M321 156c-2 8-6 15-11 22l-6 12c-3-5-5-11-6-16 0-10 3-20 11-25 3-3 8-4 12-5v12z" fill="#5275A0"/><path d="M383 226l-3 9c-5 11-15 19-30 27l-1-21c0-18-20-29-33-42-7-7-12-16-12-25-1-10 2-20 10-25 6-5 15-6 23-5 12 1 25 6 33 16l1 1c5 7 8 15 9 23 4 14 5 28 3 42z" fill="#00AD9F"/><path d="M319 159c14 7 28 16 36 29 12 19 9 43 1 63" stroke="#00AD9F" stroke-miterlimit="10" stroke-linecap="round" stroke-linejoin="round"/><path d="M615 346c9-15 5-33 8-50 2-13 9-25 20-33 6-5 15-9 23-5 1 1 3 2 5 1l1-3c2-9-2-19 1-27 2-5 6-8 10-11 8-5 18-8 27-9l8 1c4 3 6 8 5 12 0 5-3 9-6 13-9 12-22 22-24 37v6l4 5c3 5-3 11-8 13-5 3-11 4-16 5-4 0-8 0-11 3-4 5 1 13 0 20-1 5-4 8-7 11-6 6-12 11-19 15l-16 11c-5 4-9 10-9 17" fill="#52D2BC"/><path d="M627 332l8-20c5-10 10-21 18-29l19-17 11-15 5-9 8-8c4-3 8-8 10-12" stroke="#00AD9F" stroke-miterlimit="10" stroke-linecap="round" stroke-linejoin="round"/><path d="M743 356c-2 8-5 15-10 21-4 5-8 8-13 11l-8 3c-10 5-21 7-32 7-16 1-32-2-48 2a47 47 0 00-27 22l2-14c4-14 8-28 16-41 5-8 12-15 19-22 11-10 24-19 37-26 11-5 24-9 36-8 13 2 25 10 28 21 3 8 2 16 0 24z" fill="#5193F4"/><path d="M618 398c11-17 29-30 49-37 12-4 26-6 38-9 13-4 25-10 33-21" stroke="#0B43A4" stroke-miterlimit="10" stroke-linecap="round" stroke-linejoin="round"/><path d="M625 526c1-18 10-34 22-48 9-12 20-22 34-28 5-1 9-3 14-1 5 1 9 5 9 9s-3 8-6 10c-9 10-21 15-32 22a99 99 0 00-45 48" fill="#52D2BC"/><path d="M632 510c12-26 42-49 62-52" stroke="#00AD9F" stroke-miterlimit="10" stroke-linecap="round" stroke-linejoin="round"/><path d="M618 540c0-3 10-10 12-12 12-12 27-20 42-25 6-1 13-3 19-1 6 1 12 6 12 13 1 6-3 13-9 16-5 3-12 3-18 3-10 0-19-3-29-3-9 0-23 1-29 9z" fill="#00AD9F"/><path d="M628 531c20-10 49-17 71-15" stroke="#00AD9F" stroke-miterlimit="10" stroke-linecap="round" stroke-linejoin="round"/><path opacity=".2" d="M383 226l-3 9c-7-14-13-33-15-57 0-6 2-13 5-18l1 1c5 7 8 15 9 23 4 14 5 28 3 42z" fill="#5275A0"/><path d="M451 226c14-6 30-10 43-18 4-2 8-5 11-9 3-3 4-8 4-13-1-5-4-9-3-14l5-8c4-6 5-14 3-22-2-7-8-13-11-21-3-6-4-13-3-19-12 0-24 7-36 9-9 2-19 1-28 3-16 4-30 18-33 35-8-1-16 2-21 8-6 6-9 14-9 23 4 60 39 92 39 92s33-44 39-46z" fill="#7EE8D4"/><path d="M418 225c-2-15 4-30 10-43 5-14 12-27 21-39 9-11 21-21 34-27M431 126c-2 13-1 29 3 42M436 163c16-10 39-15 57-14M399 166c18 7 19 34 20 42M424 191c14-10 34-13 49-9M462 119c-4 5-5 11-5 15M461 131c7-4 15-4 25-2" stroke="#00AD9F" stroke-miterlimit="10" stroke-linecap="round" stroke-linejoin="round"/><path d="M100 160c2 0 13-9 18-12 1-1 3-1 3-3 1-1 2-3 1-4-1-2-2-3-5-3-6 0-8 2-11 4-10 10-6 18-6 18zM153 195c5 2 10 5 16 4 2 0 4-1 5-3s0-4-1-5l-6-3c-6-1-16 0-23 2l9 5zM186 119c-2-1-4-3-4-6 0-2 2-4 5-4s5 1 7 3c9 7 8 16 8 16l-16-9zM193 96l-5-3-1-3c1-2 2-4 6-3 14 3 17 12 17 12s-13-1-17-3zM232 117c6-1 11-4 15-8l3-5c0-2 0-4-2-6h-7l-4 6-5 13z" fill="#4A49CA"/><path d="M137 312l-39-34c-7-6-14-12-19-21-9-17-4-40 9-55s31-24 50-31c19-6 38-11 56-20 11-5 23-13 26-25 2-7 0-15-4-21-5-6-12-10-19-11M242 104c-4 11-18 18-24 27" stroke="#0B43A4" stroke-miterlimit="10" stroke-linecap="round" stroke-linejoin="round"/><path d="M192 117l8 8c5 7 6 18-2 24M122 178c11 9 26 14 41 15M96 194c-6-16 0-34 13-44" stroke="#0B43A4" stroke-miterlimit="10" stroke-linecap="round" stroke-linejoin="round"/><path d="M515 128c-1-2-1-4 1-6l4-1c12 5 10 23 10 23s-10-1-15-16zM515 161c-8 14 18 13 28 5 0 0-22-16-28-5zM548 129c-2-2-3-6-1-8s4-3 6-2c3 0 6 2 7 4 9 11 5 21 5 21s-14-11-17-15zM652 162c-1-2-1-5 1-6l4-1 4 1c2 1 5 3 6 6 3 7 1 15 1 15s-15-10-16-15zM619 187c-5-5-12-6-17-3-2 0-3 1-4 3-2 2-1 7 1 9 2 3 5 5 8 6 6 3 15 4 22 5 0 0 0-12-10-20z" fill="#4A49CA"/><path d="M523 131c4 13 15 22 27 27s26 7 39 8c13 0 26 1 39 4 12 4 25 11 30 22 7 15 1 32-8 44-9 13-22 23-30 36-5 6-8 13-7 20 1 10 9 17 16 23M553 126c9 10 16 25 18 38" stroke="#0B43A4" stroke-miterlimit="10" stroke-linecap="round" stroke-linejoin="round"/><path d="M524 164l15 2c5 0 11-3 15-6M660 163c5 4 8 11 8 17 0 7-3 15-7 19M611 192l28 23c5 4 14 8 19 7" stroke="#0B43A4" stroke-miterlimit="10" stroke-linecap="round" stroke-linejoin="round"/><path opacity=".2" d="M720 388l-8 3c-10 5-21 7-32 7-16 1-32-2-48 2-7 2-13 6-18 11l-2 1c-1-11 26-25 34-29 15-6 31-9 48-8 7 1 14 2 20 6 2 2 5 4 6 7z" fill="#5275A0"/><path d="M694 381c7 1 14 2 20 6s10 12 8 19c-1 8-10 13-18 14s-16-1-24-3c-18-4-37-4-55-2-5 0-9 1-13 3-1-10 26-25 34-28 15-7 31-10 48-9z" fill="#52D2BC"/><path d="M619 412c13-12 48-20 72-18 8 1 15 3 21 8" stroke="#00AD9F" stroke-miterlimit="10" stroke-linecap="round" stroke-linejoin="round"/><path d="M594 279h131a28 28 0 110 55l-90 1M197 375h-92a16 16 0 100 32h27" stroke="#0B43A4" stroke-miterlimit="10" stroke-linecap="round" stroke-linejoin="round" stroke-dasharray="4 4"/><path d="M50 446c-31 0-32 47 8 47l590-1c25 0 27-39-3-39-61 0-63-29-30-29" stroke="#C8DBFB" stroke-miterlimit="10" stroke-linecap="round" stroke-linejoin="round" stroke-dasharray="4 4"/><path d="M58 445a8 8 0 11-16 3 8 8 0 0116-3z" fill="#5193F4"/><path d="M631 425a8 8 0 11-16 2 8 8 0 0116-2z" fill="#0B43A4"/><path opacity=".2" d="M639 560l-488 1c-7 0-12-5-12-12l-1-323c0-6 6-12 12-12l488-1c7 0 12 6 12 12l1 323c0 7-5 12-12 12z" fill="#5275A0"/><path d="M629 554l-488 1c-6 0-12-5-12-12V220c0-7 5-12 12-12l488-1c6 0 12 5 12 12v323c0 7-5 12-12 12z" fill="#fff"/><path d="M628 207l-486 1c-7 0-13 6-13 13v11l512-1v-11c0-7-6-13-13-13z" fill="#0056EC"/><path d="M142 555h74l-1-323h-86l1 310c0 7 5 13 12 13z" fill="#C8DBFB"/><path d="M629 210c5 0 8 4 8 9l1 323-2 6-6 3-489 1c-4 0-8-4-8-9l-1-323c0-2 1-5 3-6 1-2 3-3 6-3l488-1zm0-3l-488 1c-7 0-12 5-12 12l1 323c0 7 5 12 11 12l489-1c6 0 11-5 11-12V219c0-7-6-12-12-12z" fill="#0056EC"/><path d="M203 530h-56c-3 0-5-2-5-4v-1c0-2 2-4 5-4h56c3 0 5 2 5 4v1c0 2-2 4-5 4zM197 311h-48c-5 0-9-3-9-8v-48c0-5 4-8 8-8l49-1c4 0 8 4 8 9v48c0 5-4 8-8 8z" fill="#fff"/><path d="M403 456H235c-3 0-6-3-6-6v-1c0-3 3-6 6-6h168c3 0 6 3 6 6v1c0 3-3 6-6 6zM393 264l-132 1c-4 0-6-3-6-6v-1c0-3 2-6 6-6h132c4 0 6 2 6 6s-2 6-6 6zM603 398l-177 1c-3 0-6-3-6-6v-1c0-3 3-6 6-6h177c3 0 6 3 6 6v1c0 3-3 5-6 5zM403 481l-168 1c-3 0-6-3-6-6v-1c0-3 3-6 6-6h168c3 0 6 3 6 6v1c0 3-3 5-6 5zM403 507l-168 1c-3 0-6-3-6-6v-1c0-3 3-6 6-6h168c3 0 6 2 6 6s-3 6-6 6zM599 524l-169 1c-5 0-10-5-10-10v-73c0-5 5-10 10-10h169c6 0 10 4 10 10v73c0 5-4 9-10 9zM157 220a4 4 0 11-8 0 4 4 0 018 0zM170 224a4 4 0 100-8 4 4 0 000 8zM192 220a4 4 0 11-8 0 4 4 0 018 0zM248 260a12 12 0 10-24-3 12 12 0 0024 3z" fill="#C8DBFB"/><path d="M200 321h-53l-2-2 2-2h53l2 2-2 2zM200 331l-53 1c-1 0-2-1-2-3l2-2h53l2 2-2 2z" fill="#fff"/><path d="M261 353h-15v63h-13c-5 0-8-4-8-8l-1-116c0-5 4-9 9-9h28v70z" fill="#C8DBFB"/><path d="M358 283v2c4 0 8 3 8 8v113a8 8 0 01-8 8H234c-4 0-8-3-8-8V293a8 8 0 018-8h124v-2zm0 0H234c-5 0-10 5-10 10l1 113c0 5 4 10 9 10l124-1c6 0 10-4 10-9V293c0-6-5-10-10-10zM564 376l-165-37c-5-2-8-7-7-12l19-82c1-5 6-9 11-7l165 37c6 1 9 6 8 11l-19 83c-1 5-6 8-12 7z" fill="#C8DBFB"/><path d="M245 599h-23l-6-29h35l-6 29z" fill="#0056EC"/><path d="M223 570c0 2-1 6 1 6 1 0 1-3 3-3 1 0-1 12 4 13 3 0 2-6 2-11 0-2 4-2 4 0v6c0 4 6 3 6-3v-8h-20z" fill="#C8DBFB"/><path d="M217 588h-1l-4-3c-2-5 4-14 4-15l1 2s-6 8-4 12l3 2 1 1c9 0 23-16 23-16h1c0 1-15 17-24 17z" fill="#0C2340"/><path opacity=".2" d="M460 186c-33-2-78 23-62 82 0 5 3 8 6 7 3 0 0-10 0-10 6-44 16-52 33-52h41c10 2 28 9 31 44l10 2c1-25-5-71-59-73z" fill="#5275A0"/><path d="M460 180c-33-1-78 23-62 83l6-3c6-44 16-52 33-52h41c10 2 29 11 31 46h10c1-26-5-72-59-74z" fill="#EF832B"/><path d="M453 181l-5 11s1 6 7 6 7-3 7-3v-12l-9-2z" fill="#FFB9A3"/><path d="M478 172c-5 10-8 13-15 15-9 2-20-5-15-20 4-13 10-11 16-11 6 1 20 6 14 16z" fill="#FFB9A3"/><path d="M456 165c-1-1-3 0-4 1-2 1-2 3-2 4-2 0-4 3-4 5l-1-11c0-4 0-8 3-11l3-2c5-3 12-3 17-1 1 1 4 3 8 2 7-2 11 3 7 7 1 1 3 1 3 3v1h-4l4 3c2 4-7 2-8 1 2 0 5 4 4 6 0 0-5 3-11-3l-4-4-5 1-4 1c-1-1 0-3-2-3z" fill="#0C2340"/><path d="M510 254c-1 5-2 5-1 6 2 1 4-2 4-2l8 2-3-6h-8zM404 260l3 6c3 6-4 15-8 5l-1-8 6-3z" fill="#FFB9A3"/><path d="M468 151c5 0 12-3 16 2l1-1c-4-6-12-2-17-2v1zM470 148h-11c-3 0-6 2-9 4l1 1c4-2 7-4 11-4h8v-1zM448 153c-2 2-4 4-4 7s-1 8 2 9v-1l-1-7c0-3 1-5 4-7l-1-1zM489 162c-1-2-4-4-7-3v1l4 1 3 2v-1z" fill="#0C2340"/><path d="M309 410c17 6 32 26 29 40-4 16-15 23-15 23l-4-6s9-14 8-21c-1-10-14-17-14-17l-4-19z" fill="#0B43A4"/><path d="M267 593l-14 6h21v-6h-7zM313 592s3 4 3 7h-14c0-2 1-5 3-7h8z" fill="#0C2340"/><path d="M314 592l-10 1a1394 1394 0 00-8-114l5-1 20-5c3 16-4 87-7 119z" fill="#047F76"/><path d="M278 478c-8 12-10 99-13 115h9s11-54 34-116l-30 1z" fill="#009790"/><path opacity=".2" d="M311 477l-12 36-3-34 5-1 10-1z" fill="#5275A0"/><path d="M278 478c-8 12-10 99-13 115h9s11-54 34-116l-30 1z" fill="#009790"/><path d="M284 382s-6 22 9 22l-1 6 11 1-3-8 3-17c0-4-13-13-19-4z" fill="#FFB9A3"/><path d="M247 356h-4v19h4v-19z" fill="#0C2340"/><path d="M257 356h-25c-1 0-3-1-3-3s2-4 3-4h25c2 0 4 2 4 4s-2 3-4 3z" fill="#0056EC"/><path d="M242 380c-1-5-4-3-2-10 1-4 10 0 9 3l-3 8-4-1z" fill="#FFB9A3"/><path d="M293 409c-22 1-24 9-34 7-14-1-12-29-10-38h-9s-16 62 34 50c-2 11 11 29-1 50 19 5 36 7 51 0-2-3 6-39-10-65-3-5-20-4-21-4z" fill="#0056EC"/><path d="M293 409c-22 1-24 9-34 7-14-1-12-29-10-38h-9s-16 62 34 50c-2 11 11 29-1 50 19 5 36 7 51 0-2-3 6-39-10-65-3-5-20-4-21-4z" fill="#0056EC"/><path d="M290 386l3 2 1 3 2-2 2 2v1l-2 4c2 0 4 6 4 7 4-1 10-3 11-14 0-5-1-11-7-14-4-3-10-3-14-2s-10 5-7 9c1 2 4 3 7 4z" fill="#EF832B"/><path d="M309 379c2-1 4 0 5 2l2 4 1 2 2 1h8l5 4 1 4c0 2 2 3 4 4 3 2 6 5 8 9 2 2 3 4 3 7l2 8c-1 3-4 7-9 8-9 3-12 4-21-1l-4-3-1-3c-1-2 0-5 1-7l5-7 1-4-1-2h-1l-6-1-2-5 2-3c0-2-1-4-3-5l-5-1-2-1-1-3c0-3 2-6 6-7z" fill="#EF832B"/><path d="M307 388c11 3-3 13 3 18l5 1c8 1 4 6 3 10h1c1-2 3-6 2-9-1-2-4-2-6-2-3 0-6 0-5-6l2-4v-4c0-2-2-4-5-4zM284 375c9-4 17-4 24 3l1-1c-6-7-17-8-25-3v1z" fill="#EF832B"/><path d="M568 401l-4 8 9 3 1-8-6-3z" fill="#FFB9A3"/><path d="M573 377c-20 9-12 31 0 28 7-1 10-20 10-20l-10-8z" fill="#FFB9A3"/><path d="M580 374l-3-3h-3c-2 1-1 3 0 5h-3v2l4 5-2 3h1v3l-2 3h3l-1 3-2 1c0 1-3 8-1 10s10 0 12-2l4 2c2-1 3-3 2-4 2 1 4 0 6-2v-5l1-3-4-4 2-2-2-3c-1-2-4-3-6-3-3 0-5-3-6-6z" fill="#4A49CA"/><path d="M561 591l-14 8h26c1-1-4-8-4-8h-8zM605 585l-12 10 25-5c0-2-5-7-5-7l-8 2z" fill="#0C2340"/><path d="M572 481c0 3-16 67 30 105l14-3s-16-15-23-41c-7-25-2-27 2-41 5-15 1-26 1-26l-24 6z" fill="#D8742A"/><path d="M550 481c-7 18-20 78 8 111h13s-10-12-12-39c-1-28 6-40 11-49s10-24 10-24l-30 1z" fill="#EF832B"/><path d="M540 372c-3 13-4 37 14 46l12-3s-22-11-17-41l-9-2z" fill="#0B43A4"/><path d="M507 365l9-1s-1 40 45 44c35 2 38 68 38 68-11 8-30 10-55 8 0 0 2-47-2-60 0 0-38-12-35-59z" fill="#0056EC"/><path d="M495 358c-2 2 5 4 12 7l8-1v-3c0-2-1-3-2-1-1 1-5 2-7 0-2-1-9-4-11-2zM540 372l-2-3 10 2 3-4c2 0-1 3 0 4l-2 4-9-3z" fill="#FFB9A3"/><path d="M585 379c2 0 4 0 6 2 1 1 2 3 1 5-1 1 0 2 1 1v-6c-2-3-5-3-8-3v1zM594 396c1 1 2 2 1 4l-3 3 1 1 4-5c0-2-1-3-3-4v1zM572 406c5 2 11 2 14-2l-1-1c-3 3-8 4-12 2l-1 1zM594 382c3 2 0 5-1 7v1c2-2 3-3 3-5s0-3-2-4v1z" fill="#4A49CA"/><path d="M320 85l-4-9 37-14-33 23z" fill="#0B43A4"/><path d="M322 80l31-18-22 22-9-4zM307 72l46-10-37 14-9-4z" fill="#5193F4"/><path d="M322 80l-2 5 5-4-3-1z" fill="#0056EC"/><path d="M315 84c-9-2-22 8-17 18 2 4 12 2 11-2l-4-2c-11 1-11 10-11 12 3 12 21 8 27 7" stroke="#C8DBFB" stroke-miterlimit="10" stroke-linecap="round" stroke-linejoin="round" stroke-dasharray="4 4"/></g><defs><clipPath id="clip0"><path fill="#fff" d="M0 0h770v657H0z"/></clipPath></defs></svg>